<?xml version="1.0" encoding="UTF-8" standalone="no"?>
<!-- Created with Inkscape (http://www.inkscape.org/) -->

<svg
   width="100mm"
   height="100mm"
   viewBox="0 0 100 100"
   version="1.1"
   id="svg5"
   inkscape:version="1.2.2 (732a01da63, 2022-12-09, custom)"
   sodipodi:docname="logo-b.svg"
   xmlns:inkscape="http://www.inkscape.org/namespaces/inkscape"
   xmlns:sodipodi="http://sodipodi.sourceforge.net/DTD/sodipodi-0.dtd"
   xmlns="http://www.w3.org/2000/svg"
   xmlns:svg="http://www.w3.org/2000/svg">
  <sodipodi:namedview
     id="namedview7"
     pagecolor="#ffffff"
     bordercolor="#666666"
     borderopacity="1.0"
     inkscape:showpageshadow="2"
     inkscape:pageopacity="0.0"
     inkscape:pagecheckerboard="0"
     inkscape:deskcolor="#d1d1d1"
     inkscape:document-units="mm"
     showgrid="false"
     inkscape:zoom="0.92484115"
     inkscape:cx="165.97445"
     inkscape:cy="205.44069"
     inkscape:window-width="1314"
     inkscape:window-height="679"
     inkscape:window-x="26"
     inkscape:window-y="23"
     inkscape:window-maximized="0"
     inkscape:current-layer="layer1" />
  <defs
     id="defs2" />
  <g
     inkscape:label="Layer 1"
     inkscape:groupmode="layer"
     id="layer1">
    <g
       id="g260"
       transform="matrix(1,0,0,1.1143748,0,-7.1488482)"
       style="fill:#ff2200;fill-opacity:1">
      <circle
         id="path110"
         style="fill:#ff2200;stroke:#000000;stroke-width:0.34121;fill-opacity:1"
         cx="56.806091"
         cy="62.09341"
         r="0.038142245" />
      <path
         style="fill:#ff2200;fill-opacity:1;fill-rule:nonzero;stroke:none;stroke-width:0.34121"
         id="path253"
         d="m 14.547027,19.110103 c 1.373806,-0.489343 2.417863,-0.892711 3.927256,-1.218587 6.283963,-1.356695 12.762859,-1.978184 19.176358,-2.240681 2.457116,-0.100564 4.917826,-0.07146 7.37674,-0.107193 4.389945,0.219995 8.263594,0.237596 12.569596,1.078621 1.491576,0.291326 5.275741,0.740935 5.761757,3.148714 0.369091,1.828515 -2.29796,4.070046 -3.091856,4.954829 -4.331161,3.3722 -2.664009,2.237705 -7.344512,5.216534 -0.09378,0.05968 0.364846,-0.246666 0.260589,-0.208095 -0.680533,0.251767 -1.317173,0.615383 -2.002893,0.852672 -0.107425,0.03718 -0.251277,-0.115536 -0.338378,-0.04249 -0.757482,0.635275 -1.402475,1.393726 -2.103713,2.090589 1.303719,-0.448984 2.575962,-1.002682 3.911161,-1.346949 1.802776,-0.464828 3.628215,-0.890783 5.48085,-1.074688 7.556515,-0.750113 15.082628,0.278872 21.961538,3.605339 2.399959,1.160561 4.535429,2.802979 6.803144,4.204468 1.788528,1.88133 3.995197,3.439387 5.365586,5.643989 1.463189,2.353903 2.476309,5.038959 2.970219,7.7662 1.22595,6.769401 -0.07,13.086154 -3.721137,18.967208 -2.163739,3.485202 -4.758703,6.86461 -8.059251,9.300751 -3.759353,2.774785 -8.446005,3.999213 -12.669008,5.998817 -5.978406,1.420627 -11.868134,3.287197 -17.93522,4.261879 -12.237206,1.965917 -23.501007,1.908733 -35.789638,1.042347 -4.754521,-0.335212 -9.4677695,-1.11026 -14.201655,-1.665389 0,0 -1.5369508,1.09283 -1.5369508,1.09283 v 0 c 4.9094243,0.434119 9.8066108,1.04131 14.7282738,1.302356 5.822327,0.308814 11.659177,0.589436 17.486815,0.406336 17.865493,-0.561331 18.825818,-1.615708 36.022343,-5.462318 5.351171,-2.629358 11.198857,-4.426732 16.053517,-7.888066 3.450579,-2.460234 6.125344,-5.968183 8.397571,-9.54536 3.81982,-6.013557 5.25758,-12.414179 4.08264,-19.399561 -0.4682,-2.783584 -1.45195,-5.540063 -2.9293,-7.945258 -1.37476,-2.238168 -3.631989,-3.795539 -5.447984,-5.693308 -2.27946,-1.420441 -4.433044,-3.066349 -6.83838,-4.26132 -2.39292,-1.188802 -4.910101,-2.159642 -7.489505,-2.856777 -4.06272,-1.098031 -9.877276,-1.506672 -14.112995,-1.242246 -3.690054,0.230362 -5.507765,0.901388 -8.847024,1.848572 -1.884574,1.269077 -3.855765,2.418159 -5.653726,3.807231 -0.205825,0.159015 0.533488,0.04405 0.779194,-0.04125 0.791197,-0.274719 1.558101,-0.625277 2.293709,-1.025712 5.046871,-2.747319 10.030329,-5.644343 14.410674,-9.391957 1.025968,-1.201693 3.752649,-3.404538 2.999075,-5.642187 -0.788167,-2.340386 -5.026743,-2.752757 -6.527433,-2.996378 -4.332053,-0.703262 -8.488684,-0.734825 -12.870383,-0.920811 -2.458862,0.02893 -4.918802,0.0084 -7.376582,0.08679 -5.215879,0.166374 -8.513432,0.44239 -13.625327,0.973755 -1.583688,0.16462 -3.17034,0.316297 -4.743472,0.562106 -0.95575,0.14934 -2.503629,0.58381 -3.559008,0.869454 0,0 -4.003275,3.134201 -4.003275,3.134201 z" />
      <path
         style="fill:#ff2200;fill-opacity:1;fill-rule:nonzero;stroke:none;stroke-width:0.34121"
         id="path255"
         d="m 36.142251,9.7385963 c 0.13383,0.4041437 0.285996,0.8026687 0.401485,1.2124307 0.58971,2.092297 1.348752,5.364013 1.741946,7.284532 0.490152,2.394111 0.981268,4.789391 1.374342,7.20134 1.223719,7.50888 1.581194,11.813372 2.417399,19.500358 0.383349,3.754321 0.767004,7.50861 1.150044,11.262961 0.965532,9.463596 1.202574,12.370238 2.372365,21.675271 0.91955,7.314542 1.390509,10.212241 2.443835,17.262694 0,0 2.980786,-1.582415 2.980786,-1.582415 v 0 c -0.490325,-2.577524 -1.020831,-5.14773 -1.47098,-7.732573 -2.431152,-13.960097 -3.923,-28.060337 -4.986109,-42.185333 -1.052858,-12.131242 -2.038791,-24.285109 -3.95114,-36.3186248 0,0 -4.473973,2.4193591 -4.473973,2.4193591 z" />
    </g>
  </g>
</svg>
